<?xml version="1.0" encoding="UTF-8" standalone="yes"?><svg xmlns="http://www.w3.org/2000/svg" xmlns:xlink="http://www.w3.org/1999/xlink" height="682px" style="width:888px;height:682px;" version="1.1" viewBox="0 0 888 682" width="888px"><defs><filter height="300%" id="f1" width="300%" x="-1" y="-1"><feGaussianBlur result="blurOut" stdDeviation="2.0"/><feColorMatrix in="blurOut" result="blurOut2" type="matrix" values="0 0 0 0 0 0 0 0 0 0 0 0 0 0 0 0 0 0 .4 0"/><feOffset dx="4.0" dy="4.0" in="blurOut2" result="blurOut3"/><feBlend in="SourceGraphic" in2="blurOut3" mode="normal"/></filter></defs><g><text fill="#000000" font-family="sans-serif" font-size="18" lengthAdjust="spacingAndGlyphs" textLength="194" x="356.5" y="18.6855">画面(View)の状態遷移図</text><ellipse cx="407.5" cy="40.6406" fill="#000000" filter="url(#f1)" rx="10" ry="10" style="stroke: none; stroke-width: 1.0;"/><rect fill="#FEFECE" filter="url(#f1)" height="50" rx="12.5" ry="12.5" style="stroke: #A80036; stroke-width: 1.5;" width="229" x="293" y="111.6406"/><line style="stroke: #A80036; stroke-width: 1.5;" x1="293" x2="522" y1="139.25" y2="139.25"/><text fill="#000000" font-family="sans-serif" font-size="14" lengthAdjust="spacingAndGlyphs" textLength="209" x="303" y="131.1738">ログイン画面index.jspログイン前</text><rect fill="#FEFECE" filter="url(#f1)" height="50" rx="12.5" ry="12.5" style="stroke: #A80036; stroke-width: 1.5;" width="174" x="325.5" y="239.6406"/><line style="stroke: #A80036; stroke-width: 1.5;" x1="325.5" x2="499.5" y1="267.25" y2="267.25"/><text fill="#000000" font-family="sans-serif" font-size="14" lengthAdjust="spacingAndGlyphs" textLength="154" x="335.5" y="259.1738">商品一覧画面itemList.jsp</text><rect fill="#FEFECE" filter="url(#f1)" height="50" rx="12.5" ry="12.5" style="stroke: #A80036; stroke-width: 1.5;" width="229" x="96" y="367.6406"/><line style="stroke: #A80036; stroke-width: 1.5;" x1="96" x2="325" y1="395.25" y2="395.25"/><text fill="#000000" font-family="sans-serif" font-size="14" lengthAdjust="spacingAndGlyphs" textLength="209" x="106" y="387.1738">ログイン画面index.jspログイン後</text><rect fill="#FEFECE" filter="url(#f1)" height="50" rx="12.5" ry="12.5" style="stroke: #A80036; stroke-width: 1.5;" width="237" x="6" y="495.6406"/><line style="stroke: #A80036; stroke-width: 1.5;" x1="6" x2="243" y1="523.25" y2="523.25"/><text fill="#000000" font-family="sans-serif" font-size="14" lengthAdjust="spacingAndGlyphs" textLength="217" x="16" y="515.1738">ログインエラー画面loginFailed.jsp</text><rect fill="#FEFECE" filter="url(#f1)" height="50" rx="12.5" ry="12.5" style="stroke: #A80036; stroke-width: 1.5;" width="168" x="453.5" y="623.6406"/><line style="stroke: #A80036; stroke-width: 1.5;" x1="453.5" x2="621.5" y1="651.25" y2="651.25"/><text fill="#000000" font-family="sans-serif" font-size="14" lengthAdjust="spacingAndGlyphs" textLength="148" x="463.5" y="643.1738">購入履歴画面history.jsp</text><rect fill="#FEFECE" filter="url(#f1)" height="50" rx="12.5" ry="12.5" style="stroke: #A80036; stroke-width: 1.5;" width="239" x="569" y="367.6406"/><line style="stroke: #A80036; stroke-width: 1.5;" x1="569" x2="808" y1="395.25" y2="395.25"/><text fill="#000000" font-family="sans-serif" font-size="14" lengthAdjust="spacingAndGlyphs" textLength="219" x="579" y="387.1738">購入確認画面purchase_confirm.jsp</text><rect fill="#FEFECE" filter="url(#f1)" height="50" rx="12.5" ry="12.5" style="stroke: #A80036; stroke-width: 1.5;" width="161" x="457" y="495.6406"/><line style="stroke: #A80036; stroke-width: 1.5;" x1="457" x2="618" y1="523.25" y2="523.25"/><text fill="#000000" font-family="sans-serif" font-size="14" lengthAdjust="spacingAndGlyphs" textLength="141" x="467" y="515.1738">購入結果画面result.jsp</text><path d="M407.5,50.6536 C407.5,63.3386 407.5,87.0496 407.5,106.2106 " fill="none" style="stroke: #A80036; stroke-width: 1.0;"/><polygon fill="#A80036" points="407.5,111.4806,411.5,102.4806,407.5,106.4806,403.5,102.4806,407.5,111.4806" style="stroke: #A80036; stroke-width: 1.0;"/><path d="M330.138,161.6946 C306.591,173.4006 289.876,189.3806 302.5,209.6406 C309.452,220.7986 319.458,229.7166 330.638,236.8256 " fill="none" style="stroke: #A80036; stroke-width: 1.0;"/><polygon fill="#A80036" points="335.148,239.5616,329.5297,231.4725,330.8737,236.9673,325.3788,238.3113,335.148,239.5616" style="stroke: #A80036; stroke-width: 1.0;"/><text fill="#000000" font-family="sans-serif" font-size="13" lengthAdjust="spacingAndGlyphs" textLength="163" x="303.5" y="206.1357">ユーザID, パスワードを入力</text><path d="M451.292,239.4856 C467.01,226.4296 479.74,209.3746 471.5,191.6406 C466.867,181.6706 459.386,172.8776 451.145,165.4386 " fill="none" style="stroke: #A80036; stroke-width: 1.0;"/><polygon fill="#A80036" points="447.047,161.8956,451.2399,170.8074,450.8296,165.1654,456.4716,164.7552,447.047,161.8956" style="stroke: #A80036; stroke-width: 1.0;"/><text fill="#000000" font-family="sans-serif" font-size="13" lengthAdjust="spacingAndGlyphs" textLength="65" x="475.5" y="206.1357">ログアウト</text><path d="M210.313,367.4526 C211.122,335.8536 216.252,279.8296 240.5,239.6406 C261.58,204.7026 299.639,180.0966 334.106,163.8176 " fill="none" style="stroke: #A80036; stroke-width: 1.0;"/><polygon fill="#A80036" points="338.725,161.6746,328.8774,161.8338,334.1894,163.7789,332.2442,169.0908,338.725,161.6746" style="stroke: #A80036; stroke-width: 1.0;"/><text fill="#000000" font-family="sans-serif" font-size="13" lengthAdjust="spacingAndGlyphs" textLength="65" x="241.5" y="270.1357">ログアウト</text><path d="M236.557,367.4696 C253.427,352.5616 276.313,333.6766 298.5,319.6406 C314.571,309.4736 332.856,299.9916 350.004,291.8986 " fill="none" style="stroke: #A80036; stroke-width: 1.0;"/><polygon fill="#A80036" points="354.808,289.6526,344.9609,289.8395,350.2783,291.7696,348.3481,297.087,354.808,289.6526" style="stroke: #A80036; stroke-width: 1.0;"/><text fill="#000000" font-family="sans-serif" font-size="13" lengthAdjust="spacingAndGlyphs" textLength="52" x="299.5" y="334.1357">ログイン</text><path d="M325.233,276.3836 C294.32,284.0536 261.336,297.1816 237.5,319.6406 C225.541,330.9096 218.84,347.9866 215.106,362.6816 " fill="none" style="stroke: #A80036; stroke-width: 1.0;"/><polygon fill="#A80036" points="213.95,367.5616,219.9172,359.7263,215.1028,362.6963,212.1327,357.8819,213.95,367.5616" style="stroke: #A80036; stroke-width: 1.0;"/><text fill="#000000" font-family="sans-serif" font-size="13" lengthAdjust="spacingAndGlyphs" textLength="26" x="238.5" y="334.1357">戻る</text><path d="M322.31,161.6606 C300.665,169.5776 278.025,179.5326 258.5,191.6406 C163.413,250.6076 120.215,263.8206 78.5,367.6406 C61.6483,409.5806 85.2436,460.1386 104.3937,491.0786 " fill="none" style="stroke: #A80036; stroke-width: 1.0;"/><polygon fill="#A80036" points="107.181,495.4976,105.7608,485.7517,104.5127,491.2691,98.9952,490.021,107.181,495.4976" style="stroke: #A80036; stroke-width: 1.0;"/><text fill="#000000" font-family="sans-serif" font-size="13" lengthAdjust="spacingAndGlyphs" textLength="78" x="102.5" y="334.1357">ログイン失敗</text><path d="M193.918,417.9346 C179.641,438.8516 159.021,469.0636 143.964,491.1226 " fill="none" style="stroke: #A80036; stroke-width: 1.0;"/><polygon fill="#A80036" points="141.031,495.4216,149.4082,490.2426,143.8495,491.2917,142.8004,485.733,141.031,495.4216" style="stroke: #A80036; stroke-width: 1.0;"/><text fill="#000000" font-family="sans-serif" font-size="13" lengthAdjust="spacingAndGlyphs" textLength="78" x="174.5" y="462.1357">ログイン失敗</text><path d="M409.704,289.8556 C404.965,340.1386 399.429,458.4436 439.5,545.6406 C453.111,575.2596 478.955,601.586 500.686,620.0712 " fill="none" style="stroke: #A80036; stroke-width: 1.0;"/><polygon fill="#A80036" points="504.692,623.4306,500.3661,614.5827,500.8608,620.2178,495.2256,620.7126,504.692,623.4306" style="stroke: #A80036; stroke-width: 1.0;"/><text fill="#000000" font-family="sans-serif" font-size="13" lengthAdjust="spacingAndGlyphs" textLength="52" x="416.5" y="462.1357">購入履歴</text><path d="M496.703,289.7346 C521.889,298.0396 549.244,308.1766 573.5,319.6406 C600.254,332.2846 628.444,349.8576 650.217,364.4776 " fill="none" style="stroke: #A80036; stroke-width: 1.0;"/><polygon fill="#A80036" points="654.484,367.3596,649.2652,359.0071,650.3408,364.5608,644.7871,365.6363,654.484,367.3596" style="stroke: #A80036; stroke-width: 1.0;"/><text fill="#000000" font-family="sans-serif" font-size="13" lengthAdjust="spacingAndGlyphs" textLength="104" x="607.5" y="334.1357">数量と購入を選択</text><path d="M574.453,367.6306 C548.667,359.9326 521.987,350.0766 498.5,337.6406 C476.766,326.1326 455.545,308.4556 439.621,293.4966 " fill="none" style="stroke: #A80036; stroke-width: 1.0;"/><polygon fill="#A80036" points="435.689,289.7576,439.4537,298.8586,439.312,293.2035,444.9671,293.0618,435.689,289.7576" style="stroke: #A80036; stroke-width: 1.0;"/><text fill="#000000" font-family="sans-serif" font-size="13" lengthAdjust="spacingAndGlyphs" textLength="65" x="499.5" y="334.1357">一覧に戻る</text><path d="M709.832,367.3316 C719.526,353.2286 727.276,335.2286 719.5,319.6406 C678.209,236.8646 580.912,189.0536 505.861,163.3966 " fill="none" style="stroke: #A80036; stroke-width: 1.0;"/><polygon fill="#A80036" points="500.95,161.7386,508.1986,168.4063,505.6875,163.3373,510.7565,160.8263,500.95,161.7386" style="stroke: #A80036; stroke-width: 1.0;"/><text fill="#000000" font-family="sans-serif" font-size="13" lengthAdjust="spacingAndGlyphs" textLength="65" x="701.5" y="270.1357">ログアウト</text><path d="M681.603,417.7826 C677.471,431.8296 671.971,449.8296 666.5,465.6406 C645.504,526.3216 643.216,546.6086 599.5,593.6406 C590.997,602.7889 581.063,611.992 571.67,620.1437 " fill="none" style="stroke: #A80036; stroke-width: 1.0;"/><polygon fill="#A80036" points="567.684,623.5697,577.117,620.7379,571.4762,620.3111,571.9031,614.6703,567.684,623.5697" style="stroke: #A80036; stroke-width: 1.0;"/><text fill="#000000" font-family="sans-serif" font-size="13" lengthAdjust="spacingAndGlyphs" textLength="52" x="657.5" y="526.1357">購入履歴</text><path d="M649.539,417.7006 C636.117,426.5646 621.262,437.0416 608.5,447.6406 C592.329,461.0706 575.752,477.6896 562.687,491.5766 " fill="none" style="stroke: #A80036; stroke-width: 1.0;"/><polygon fill="#A80036" points="559.098,495.4156,568.1659,491.572,562.5122,491.7628,562.3214,486.1092,559.098,495.4156" style="stroke: #A80036; stroke-width: 1.0;"/><text fill="#000000" font-family="sans-serif" font-size="13" lengthAdjust="spacingAndGlyphs" textLength="52" x="609.5" y="462.1357">購入する</text><path d="M618.229,496.2486 C698.982,472.0416 812.987,435.3466 825.5,417.6406 C838.325,399.4926 829.614,389.4786 825.5,367.6406 C814.193,307.6216 820.253,281.2026 775.5,239.6406 C708.475,177.3946 606.805,152.6156 527.302,142.9986 " fill="none" style="stroke: #A80036; stroke-width: 1.0;"/><polygon fill="#A80036" points="522.098,142.3866,530.5689,147.4109,527.0637,142.9709,531.5038,139.4658,522.098,142.3866" style="stroke: #A80036; stroke-width: 1.0;"/><text fill="#000000" font-family="sans-serif" font-size="13" lengthAdjust="spacingAndGlyphs" textLength="65" x="822.5" y="334.1357">ログアウト</text><path d="M537.5,545.9346 C537.5,566.5906 537.5,596.3096 537.5,618.292 " fill="none" style="stroke: #A80036; stroke-width: 1.0;"/><polygon fill="#A80036" points="537.5,623.4211,541.5,614.4211,537.5,618.4211,533.5,614.4211,537.5,623.4211" style="stroke: #A80036; stroke-width: 1.0;"/><text fill="#000000" font-family="sans-serif" font-size="13" lengthAdjust="spacingAndGlyphs" textLength="52" x="538.5" y="590.1357">購入履歴</text><path d="M524.611,495.4506 C513.719,474.8636 497.811,444.4526 484.5,417.6406 C463.363,375.0636 439.994,325.1716 425.778,294.4856 " fill="none" style="stroke: #A80036; stroke-width: 1.0;"/><polygon fill="#A80036" points="423.577,289.7286,423.7273,299.5763,425.6772,294.2662,430.9874,296.216,423.577,289.7286" style="stroke: #A80036; stroke-width: 1.0;"/><text fill="#000000" font-family="sans-serif" font-size="13" lengthAdjust="spacingAndGlyphs" textLength="65" x="485.5" y="398.1357">一覧に戻る</text></g></svg>